<svg width="115" height="114" viewBox="0 0 115 114" fill="none" xmlns="http://www.w3.org/2000/svg">
<path d="M64.4992 113.748H64.2492C61.9992 113.498 60.2492 111.998 59.4992 109.998L47.2492 67.2484L4.49923 54.9984C2.49923 54.4984 0.999227 52.4984 0.749227 50.2484C0.499227 47.9984 1.74923 45.9984 3.74923 45.2484L106.999 0.748407C108.999 -0.00159259 111.249 0.248407 112.749 1.74841C114.249 3.24841 114.749 5.49841 113.749 7.49841L69.2492 110.498C68.4992 112.498 66.4992 113.748 64.4992 113.748ZM21.2492 48.9984L52.9992 57.9984C54.7492 58.4984 55.9992 59.7484 56.4992 61.4984L65.4992 93.2484L99.2492 15.4984L21.2492 48.9984Z" fill="#F738B6"/>
</svg>
